<svg width="273" height="65" viewBox="0 0 273 65" fill="none" xmlns="http://www.w3.org/2000/svg">
<path d="M110.29 47.8043C117.257 47.8043 121.475 43.3018 121.475 36.0978C121.475 28.8464 116.925 24.5335 110.29 24.5335C103.56 24.5335 99.0101 28.8464 99.0101 36.0978C99.0101 43.3018 103.228 47.8043 110.29 47.8043ZM110.243 28.3251C114.698 28.3251 117.352 31.311 117.352 36.0504C117.352 40.8373 114.793 44.0127 110.243 44.0127C105.645 44.0127 103.133 40.8373 103.133 36.0504C103.133 31.311 105.835 28.3251 110.243 28.3251Z" fill="white"/>
<path d="M127.663 34.1072C127.663 30.4105 129.938 28.2777 133.73 28.2777C137.758 28.2777 139.038 31.074 139.038 34.1072V47.2356H143.161V33.0646C143.161 28.3251 141.171 24.5335 135.436 24.5335C131.549 24.5335 128.658 26.5715 127.711 31.074H127.663V18.1826H123.54V47.2356H127.663V34.1072Z" fill="white"/>
<path d="M156.331 28.0881C160.407 28.0881 162.445 30.3157 162.73 34.2494H149.459C150.028 30.1261 152.54 28.0881 156.331 28.0881ZM156.521 47.7569C162.161 47.7569 165.336 44.9606 166.474 40.6003L162.438 40.6063C161.56 42.6663 159.923 44.1549 156.521 44.1549C152.303 44.1549 149.791 41.7852 149.364 37.4723H166.521C166.616 36.4296 166.616 35.5291 166.616 34.8182C166.616 28.7516 163.061 24.5335 156.474 24.5335C149.743 24.5335 145.241 28.9412 145.241 36.3348C145.241 43.5862 149.696 47.7569 156.521 47.7569Z" fill="white"/>
<path d="M173.323 47.2356V35.5291C173.323 31.2636 175.171 29.6521 179.342 29.6521H181.333V25.1022H179.958C176.404 25.1022 174.318 26.7611 173.418 31.9271H173.323V25.1022H169.2V47.2356H173.323Z" fill="white"/>
<path d="M193.029 28.0881C197.105 28.0881 199.143 30.3157 199.428 34.2494H186.157C186.726 30.1261 189.238 28.0881 193.029 28.0881ZM193.219 47.7569C198.859 47.7569 202.034 44.9606 203.172 40.6003H199.138C198.262 42.6634 196.625 44.1549 193.219 44.1549C189.001 44.1549 186.489 41.7852 186.062 37.4723H203.219C203.314 36.4296 203.314 35.5291 203.314 34.8182C203.314 28.7516 199.759 24.5335 193.171 24.5335C186.441 24.5335 181.939 28.9412 181.939 36.3348C181.939 43.5862 186.394 47.7569 193.219 47.7569Z" fill="white"/>
<path d="M209.661 34.1072C209.661 30.4105 211.936 28.2777 215.728 28.2777C219.756 28.2777 221.036 31.074 221.036 34.1072V47.2356H225.159V33.0646C225.159 28.3251 223.169 24.5335 217.434 24.5335C213.547 24.5335 210.656 26.5715 209.708 31.074H209.661V25.1022H205.538V47.2356H209.661V34.1072Z" fill="white"/>
<path d="M245.03 33.3015H249.195C248.2 27.7564 245.072 24.5335 238.626 24.5335C232.038 24.5335 227.299 28.8464 227.299 36.1452C227.299 43.5862 231.849 47.8043 238.768 47.8043C245.025 47.8043 248.247 44.4393 249.243 38.8467H245.088C244.205 41.8132 242.683 44.0127 238.721 44.0127C234.313 44.0127 231.517 41.1217 231.517 36.1926C231.517 30.9318 234.408 28.3251 238.579 28.3251C242.195 28.3251 244.129 30.2131 245.03 33.3015Z" fill="white"/>
<path d="M262.136 28.0881C266.212 28.0881 268.25 30.3157 268.535 34.2494H255.264C255.833 30.1261 258.345 28.0881 262.136 28.0881ZM262.326 47.7569C267.966 47.7569 271.141 44.9606 272.279 40.6003H268.245C267.369 42.6634 265.732 44.1549 262.326 44.1549C258.108 44.1549 255.596 41.7852 255.169 37.4723H272.326C272.421 36.4296 272.421 35.5291 272.421 34.8182C272.421 28.7516 268.866 24.5335 262.279 24.5335C255.548 24.5335 251.046 28.9412 251.046 36.3348C251.046 43.5862 255.501 47.7569 262.326 47.7569Z" fill="white"/>
<path d="M73.7759 33.1141C73.7759 39.4436 77.25 44.0599 83.6271 44.0599C88.6096 44.0599 91.6253 41.0494 92.7479 36.3556H97.1038C95.9604 43.1903 90.9424 48.0099 83.6271 48.0099C74.9181 48.0099 69.3976 41.7279 69.3976 33.1141C69.3976 24.5002 75.0608 18.3135 83.6747 18.3135C91.0007 18.3135 95.8873 22.8762 97.1019 29.6689H92.6846C91.544 25.176 88.4969 22.3111 83.5795 22.3111C77.2976 22.3111 73.7759 27.0225 73.7759 33.1141Z" fill="white"/>
<rect x="29.8428" y="12.8423" width="6.99922" height="0.307658" fill="white"/>
<rect x="9.22974" y="35.2632" width="6.99922" height="0.307658" transform="rotate(-90 9.22974 35.2632)" fill="white"/>
<rect x="50.4559" y="39.5317" width="6.99922" height="0.307658" transform="rotate(-90 50.4559 39.5317)" fill="white"/>
<rect x="24.3819" y="54.0688" width="6.99922" height="0.307658" fill="white"/>
<path fill-rule="evenodd" clip-rule="evenodd" d="M39.3784 44.8389H39.6898C40.4808 49.5541 44.2024 53.2757 48.9177 54.0668V54.3781C44.2024 55.1692 40.4808 58.8908 39.6898 63.606H39.3784C38.5873 58.8908 34.8658 55.1692 30.1505 54.3781V54.0668C34.8658 53.2757 38.5873 49.5541 39.3784 44.8389Z" fill="white"/>
<path fill-rule="evenodd" clip-rule="evenodd" d="M9.22788 33.7632H9.53926C10.3303 38.4784 14.0519 42.2 18.7671 42.9911V43.3024C14.0519 44.0935 10.3303 47.8151 9.53926 52.5303H9.22788C8.43681 47.8151 4.71525 44.0935 0 43.3024V42.9911C4.71525 42.2 8.43681 38.4784 9.22788 33.7632Z" fill="white"/>
<path fill-rule="evenodd" clip-rule="evenodd" d="M50.4541 14.6885H50.7655C51.5565 19.4037 55.2781 23.1253 59.9933 23.9164V24.2277C55.2781 25.0188 51.5565 28.7404 50.7655 33.4556H50.4541C49.663 28.7404 45.9415 25.0188 41.2262 24.2277V23.9164C45.9415 23.1253 49.663 19.4037 50.4541 14.6885Z" fill="white"/>
<path fill-rule="evenodd" clip-rule="evenodd" d="M20.3036 3.61279H20.6149C21.406 8.32804 25.1276 12.0496 29.8428 12.8407V13.152C25.1276 13.9431 21.406 17.6647 20.6149 22.3799H20.3036C19.5125 17.6647 15.7909 13.9431 11.0757 13.152V12.8407C15.7909 12.0496 19.5125 8.32804 20.3036 3.61279Z" fill="white"/>
<path fill-rule="evenodd" clip-rule="evenodd" d="M39.4379 7.2041H39.6301C40.1184 10.1147 42.4156 12.412 45.3263 12.9003V13.0925C42.4156 13.5808 40.1184 15.8781 39.6301 18.7888H39.4379C38.9495 15.8781 36.6523 13.5808 33.7416 13.0925V12.9003C36.6523 12.412 38.9495 10.1147 39.4379 7.2041Z" fill="white"/>
<path fill-rule="evenodd" clip-rule="evenodd" d="M9.28735 18.2798H9.47956C9.96787 21.1904 12.2651 23.4877 15.1758 23.976V24.1682C12.2651 24.6565 9.96787 26.9538 9.47956 29.8644H9.28735C8.79903 26.9538 6.50178 24.6565 3.59113 24.1682V23.976C6.50178 23.4877 8.79903 21.1904 9.28735 18.2798Z" fill="white"/>
<path fill-rule="evenodd" clip-rule="evenodd" d="M50.5135 37.3545H50.7058C51.1941 40.2651 53.4913 42.5624 56.402 43.0507V43.2429C53.4913 43.7312 51.1941 46.0285 50.7058 48.9391H50.5135C50.0252 46.0285 47.728 43.7312 44.8173 43.2429V43.0507C47.728 42.5624 50.0252 40.2651 50.5135 37.3545Z" fill="white"/>
<path fill-rule="evenodd" clip-rule="evenodd" d="M20.3631 48.4302H20.5553C21.0436 51.3408 23.3409 53.6381 26.2515 54.1264V54.3186C23.3409 54.8069 21.0436 57.1042 20.5553 60.0148H20.3631C19.8748 57.1042 17.5775 54.8069 14.6669 54.3186V54.1264C17.5775 53.6381 19.8748 51.3408 20.3631 48.4302Z" fill="white"/>
</svg>
